<svg width="0" height="0" class="hidden">
  <symbol fill="none" xmlns="http://www.w3.org/2000/svg" xmlns:xlink="http://www.w3.org/1999/xlink" viewBox="0 0 20 20" id="tv">
    <desc>Created with Pixso.</desc>
    <defs>
      <clipPath id="clip2_1219">
        <rect id="tv" width="20.000000" height="20.000000" fill="white" fill-opacity="0"></rect>
      </clipPath>
    </defs>
    <rect id="tv" width="20.000000" height="20.000000" fill="#FFFFFF" fill-opacity="0"></rect>
    <g clip-path="url(#clip2_1219)">
      <path id="Vector" d="M19.455 2.01611C18.6376 2.50684 17.7657 2.8335 16.8392 3.05176C16.0763 2.23389 15.0409 1.74365 13.842 1.74365C11.5532 1.74365 9.75476 3.65088 9.75476 5.93994C9.75476 6.2666 9.80927 6.59375 9.86377 6.9209C6.43051 6.70264 3.43323 5.01318 1.4169 2.45215C1.0899 3.05176 0.871948 3.81445 0.871948 4.57764C0.871948 6.04883 1.58038 7.30225 2.72479 8.06494C2.07083 8.06494 1.4169 7.84717 0.871948 7.52002L0.871948 7.62939C0.871948 9.64551 2.28882 11.3896 4.14169 11.771C3.81473 11.8799 3.43323 11.9346 3.05176 11.9346C2.7793 11.9346 2.50681 11.9346 2.28882 11.8799C2.8338 13.5693 4.30518 14.7681 6.10355 14.8228C4.68665 15.9673 2.94278 16.6211 0.980927 16.6211C0.653961 16.6211 0.326965 16.6211 0 16.5664C1.79837 17.7656 3.97821 18.4741 6.26703 18.4741C13.842 18.4741 17.9291 12.0435 17.9291 6.48486C17.9291 6.32129 17.9291 6.10352 17.9291 5.93994C18.7466 5.34033 19.455 4.63184 20 3.75977C19.2916 4.08691 18.4741 4.30518 17.6567 4.41406C18.4741 3.81445 19.1281 2.99707 19.455 2.01611Z" fill="#B3B3B3" fill-opacity="1.000000" fill-rule="nonzero"></path>
    </g>
  </symbol>
  <symbol fill="none" xmlns="http://www.w3.org/2000/svg" xmlns:xlink="http://www.w3.org/1999/xlink" viewBox="0 0 20 20" id="in">
    <desc>Created with Pixso.</desc>
    <defs>
      <clipPath id="clip2_1222">
        <rect id="in" width="20.000000" height="20.000000" fill="white" fill-opacity="0"></rect>
      </clipPath>
    </defs>
    <rect id="in" width="20.000000" height="20.000000" fill="#FFFFFF" fill-opacity="0"></rect>
    <g clip-path="url(#clip2_1222)">
      <path id="Vector" d="M17.6022 0L2.39783 0C1.0899 0 0 1.03564 0 2.34326L0 17.6567C0 18.9644 1.0899 20 2.39783 20L17.6022 20C18.9101 20 20 18.9644 20 17.6567L20 2.34326C20 1.03564 18.9101 0 17.6022 0ZM14.3869 3.10645C14.3869 2.7793 14.6594 2.50684 14.9864 2.50684L16.8937 2.50684C17.2207 2.50684 17.4932 2.7793 17.4932 3.10645L17.4932 4.95898C17.4932 5.28613 17.2207 5.55859 16.8937 5.55859L15.0409 5.55859C14.7139 5.55859 14.4414 5.28613 14.4414 4.95898L14.3869 3.10645ZM10.0273 6.1582C12.1526 6.1582 13.8965 7.84717 13.8965 9.97266C13.8965 12.0981 12.1526 13.7876 10.0273 13.7876C7.90192 13.7876 6.15805 12.0981 6.15805 9.97266C6.15805 7.90186 7.90192 6.1582 10.0273 6.1582ZM18.0927 17.4932C18.0927 17.8203 17.8202 18.0928 17.4932 18.0928L2.50681 18.0928C2.17984 18.0928 1.90735 17.8203 1.90735 17.4932L1.90735 8.12012L4.35968 8.12012C4.03268 8.61035 3.92371 9.48242 3.92371 10.0273C3.92371 13.3516 6.6485 16.0762 10.0273 16.0762C13.406 16.0762 16.1308 13.3516 16.1308 10.0273C16.1308 9.48242 16.0763 8.61035 15.6403 8.12012L18.1471 8.12012L18.0927 17.4932Z" fill="#B3B3B3" fill-opacity="1.000000" fill-rule="nonzero"></path>
    </g>
  </symbol>
  <symbol fill="none" xmlns="http://www.w3.org/2000/svg" xmlns:xlink="http://www.w3.org/1999/xlink" viewBox="0 0 20 20" id="vk">
    <desc>Created with Pixso.</desc>
    <defs>
      <clipPath id="clip2_1228">
        <rect id="vk" width="20.000000" height="20.000000" fill="white" fill-opacity="0"></rect>
      </clipPath>
    </defs>
    <rect id="vk" width="20.000000" height="20.000000" fill="#FFFFFF" fill-opacity="0"></rect>
    <g clip-path="url(#clip2_1228)">
      <path id="Vector" d="M19.891 14.605C19.891 14.5503 19.8365 14.4961 19.8365 14.4961C19.5095 13.8965 18.8011 13.0791 17.8202 12.207C17.3842 11.771 17.1117 11.4985 17.0027 11.335C16.7847 11.0625 16.7303 10.79 16.8392 10.5176C16.9482 10.2998 17.2207 9.86377 17.7657 9.15527C18.0381 8.77393 18.2561 8.50146 18.4196 8.2832C19.6185 6.70312 20.1635 5.66748 20 5.23145L19.9455 5.12256C19.891 4.95898 19.782 4.90479 19.6185 4.8501C19.455 4.79541 19.2371 4.79541 18.9646 4.8501L15.9673 4.8501C15.9128 4.8501 15.8583 4.8501 15.7493 4.8501C15.6403 4.8501 15.6403 4.90479 15.6403 4.90479L15.5858 4.90479L15.5313 4.95898C15.4768 4.95898 15.4768 5.01367 15.4223 5.06836C15.3679 5.12256 15.3679 5.17725 15.3134 5.23145C14.9864 6.04883 14.6049 6.8667 14.2234 7.57471C13.951 8.01074 13.733 8.39258 13.515 8.71924C13.297 9.04639 13.1335 9.26416 12.97 9.42773C12.8065 9.59131 12.6975 9.7002 12.5886 9.80908C12.4796 9.91846 12.3706 9.91846 12.3161 9.91846C12.2616 9.91846 12.2071 9.86377 12.1526 9.86377C12.0436 9.80908 11.9891 9.7002 11.9346 9.59131C11.8801 9.48242 11.8256 9.37354 11.8256 9.20996C11.8256 9.04639 11.7711 8.88281 11.7711 8.77393C11.7711 8.66504 11.7711 8.50146 11.7711 8.2832C11.7711 8.06543 11.7711 7.90186 11.7711 7.84717C11.7711 7.57471 11.7711 7.30225 11.7711 6.97559C11.7711 6.64844 11.7711 6.43066 11.7711 6.26709C11.7711 6.10352 11.7711 5.88574 11.7711 5.66748C11.7711 5.44971 11.7711 5.28613 11.7166 5.17725C11.7166 5.06836 11.6621 4.95898 11.6076 4.8501C11.5531 4.74121 11.4986 4.63232 11.3896 4.57764C11.2806 4.52295 11.1717 4.46875 11.0627 4.41406C10.6812 4.30518 10.2452 4.30518 9.64578 4.30518C8.33789 4.30518 7.52045 4.35986 7.13898 4.57764C6.97546 4.63232 6.86649 4.74121 6.75751 4.90479C6.6485 5.06836 6.59399 5.12256 6.703 5.17725C7.13898 5.23145 7.41144 5.39502 7.57492 5.61328L7.62943 5.72217C7.68393 5.83105 7.73843 5.99463 7.79291 6.2124C7.84741 6.43066 7.84741 6.70312 7.90192 6.97559C7.95639 7.46582 7.95639 7.90186 7.90192 8.2832C7.84741 8.66504 7.84741 8.9375 7.79291 9.10059C7.73843 9.31885 7.73843 9.48242 7.62943 9.59131C7.57492 9.7002 7.52045 9.80908 7.52045 9.80908C7.52045 9.86377 7.46594 9.86377 7.46594 9.86377C7.35693 9.91846 7.30246 9.91846 7.19345 9.91846C7.08447 9.91846 6.97546 9.86377 6.86649 9.75488C6.703 9.646 6.59399 9.53662 6.43051 9.37354C6.26703 9.20996 6.10355 8.9917 5.94006 8.66504C5.77658 8.33789 5.55859 8.01074 5.34061 7.57471L5.17712 7.24805C5.06812 7.02979 4.90463 6.75732 4.74115 6.37598C4.57767 5.99463 4.41418 5.66748 4.25067 5.28613C4.1962 5.17725 4.08719 5.06836 3.97821 4.95898L3.92371 4.95898C3.8692 4.90479 3.81473 4.90479 3.76022 4.8501C3.70572 4.8501 3.59674 4.79541 3.54224 4.79541L0.708435 4.79541C0.38147 4.79541 0.163483 4.90479 0.0545044 5.01367L0.0545044 5.06836C0 5.12256 0 5.17725 0 5.23145C0 5.28613 0 5.39502 0.0545044 5.50391C0.490448 6.48486 0.926422 7.41162 1.4169 8.33789C1.90735 9.26416 2.34332 9.97266 2.67029 10.5176C3.05176 11.0625 3.37875 11.6074 3.76022 12.0981C4.14169 12.5884 4.35968 12.9155 4.52316 13.0244C4.63214 13.188 4.74115 13.2427 4.79565 13.3516L5.06812 13.624C5.2316 13.7876 5.50409 14.0054 5.77658 14.2236C6.10355 14.4414 6.43051 14.6592 6.86649 14.9316C7.24796 15.1499 7.73843 15.3677 8.22888 15.4771C8.77383 15.6401 9.26431 15.6948 9.75476 15.6401L10.9537 15.6401C11.1717 15.6401 11.3896 15.5312 11.4986 15.4224L11.5531 15.3677C11.6076 15.3135 11.6076 15.2588 11.6076 15.1499C11.6076 15.041 11.6621 14.9863 11.6621 14.8774C11.6621 14.605 11.6621 14.3325 11.7166 14.0601C11.7711 13.8418 11.8256 13.624 11.8801 13.5151C11.9346 13.4058 12.0436 13.2969 12.0981 13.188C12.2071 13.0791 12.2616 13.0791 12.2616 13.0244C12.3161 13.0244 12.3161 12.9702 12.3706 12.9702C12.5341 12.9155 12.752 12.9702 12.97 13.1333C13.188 13.2969 13.406 13.5151 13.624 13.7329C13.8419 13.9512 14.0599 14.2236 14.3324 14.5503C14.6049 14.8228 14.8774 15.0952 15.0409 15.2046L15.2589 15.3135C15.4223 15.4224 15.5858 15.4771 15.8038 15.5312C16.0218 15.5859 16.2398 15.6401 16.4033 15.5859L19.0736 15.5312C19.346 15.5312 19.564 15.4771 19.673 15.4224C19.8365 15.3135 19.891 15.2588 19.9455 15.1499C20 15.041 20 14.9316 19.9455 14.7686C19.9455 14.7686 19.9455 14.6592 19.891 14.605Z" fill="#B3B3B3" fill-opacity="1.000000" fill-rule="nonzero"></path>
    </g>
  </symbol>
  <symbol fill="none" xmlns="http://www.w3.org/2000/svg" xmlns:xlink="http://www.w3.org/1999/xlink" viewBox="0 0 20 20" id="fb">
    <desc>Created with Pixso.</desc>
    <defs></defs>
    <path id="Vector" d="M20 18.9102C20 19.5098 19.5095 20 18.9101 20L13.7875 20L13.7875 12.2617L16.4033 12.2617L16.7847 9.26416L13.7875 9.26416L13.7875 7.35693C13.7875 6.48486 14.0055 5.88574 15.2589 5.88574L16.8392 5.88574L16.8392 3.16064C16.5668 3.10645 15.6403 3.05176 14.4959 3.05176C12.2071 3.05176 10.6267 4.46875 10.6267 7.02979L10.6267 9.26416L8.01089 9.26416L8.01089 12.2617L10.6267 12.2617L10.6267 20L1.0899 20C0.490448 20 0 19.5098 0 18.9102L0 1.08984C0 0.490234 0.490448 0 1.0899 0L18.9101 0C19.5095 0 20 0.490234 20 1.08984L20 18.9102Z" fill="#292929" fill-opacity="1.000000" fill-rule="nonzero"></path>
  </symbol>
  <symbol fill="none" xmlns="http://www.w3.org/2000/svg" xmlns:xlink="http://www.w3.org/1999/xlink" viewBox="0 0 68 68" id="icon_fit">
    <desc>Created with Pixso.</desc>
    <defs></defs>
    <rect id="feat-2" width="68.000000" height="68.000000" fill="#FFFFFF" fill-opacity="0"></rect>
    <path id="Vector" d="M53.8359 60.0312L47.8594 60.0312L47.8594 55.7812L50.5223 55.7812C51.6225 55.7812 52.5145 54.8893 52.5145 53.7891C52.5145 52.6888 51.6225 51.7969 50.5223 51.7969L47.8594 51.7969L47.8594 47.8125L53.1785 47.8125C54.2787 47.8125 55.1707 46.9205 55.1707 45.8203C55.1707 44.7201 54.2787 43.8281 53.1785 43.8281L47.8594 43.8281L47.8594 39.8438L50.5223 39.8438C51.6225 39.8438 52.5145 38.9518 52.5145 37.8516C52.5145 36.7513 51.6225 35.8594 50.5223 35.8594L47.8594 35.8594L47.8594 31.875L53.1785 31.875C54.2787 31.875 55.1707 30.983 55.1707 29.8828C55.1707 28.7826 54.2787 27.8906 53.1785 27.8906L47.8594 27.8906L47.8594 23.9062L50.5223 23.9062C51.6225 23.9062 52.5145 23.0143 52.5145 21.9141C52.5145 20.8138 51.6225 19.9219 50.5223 19.9219L47.8594 19.9219L47.8594 15.9375L53.1785 15.9375C54.2787 15.9375 55.1707 15.0455 55.1707 13.9453C55.1707 12.8451 54.2787 11.9531 53.1785 11.9531L47.8594 11.9531L47.8594 7.96875L50.5223 7.96875C51.6225 7.96875 52.5145 7.07678 52.5145 5.97656C52.5145 4.87634 51.6225 3.98438 50.5223 3.98438L47.8594 3.98438L47.8594 1.99219C47.8594 0.891968 46.9674 0 45.8672 0C44.767 0 43.875 0.891968 43.875 1.99219L43.875 60.0312L36.6821 60.0312L37.7778 42.5L37.9051 42.5C39.0053 42.5 39.8973 41.608 39.8973 40.5078L39.8973 27.2233C39.8973 22.8007 36.9982 19.0441 33.0014 17.7493C34.7475 16.7048 35.9195 14.7956 35.9195 12.6172C35.9195 9.32172 33.2384 6.64062 29.943 6.64062C26.6475 6.64062 23.9664 9.32172 23.9664 12.6172C23.9664 14.7947 25.1373 16.703 26.882 17.7479C22.8831 19.0414 19.982 22.7991 19.982 27.2233L19.982 40.5078C19.982 41.608 20.874 42.5 21.9742 42.5L22.0948 42.5L23.1905 60.0312L13.9922 60.0312C12.892 60.0312 12 60.9232 12 62.0234L12 66.0078C12 67.108 12.892 68 13.9922 68C15.0924 68 15.9844 67.108 15.9844 66.0078L15.9844 64.0156L51.8438 64.0156L51.8438 66.0078C51.8438 67.108 52.7357 68 53.8359 68C54.9362 68 55.8281 67.108 55.8281 66.0078L55.8281 62.0234C55.8281 60.9232 54.9362 60.0312 53.8359 60.0312ZM29.943 10.625C31.0415 10.625 31.9352 11.5187 31.9352 12.6172C31.9352 13.7157 31.0415 14.6094 29.943 14.6094C28.8445 14.6094 27.9508 13.7157 27.9508 12.6172C27.9508 11.5187 28.8444 10.625 29.943 10.625ZM23.9664 27.2233C23.9664 23.9296 26.646 21.25 29.9398 21.25C33.2334 21.25 35.913 23.9296 35.913 27.2233L35.913 38.5156L23.9664 38.5156L23.9664 27.2233ZM26.0869 42.5L33.7856 42.5L32.6899 60.0312L27.1826 60.0312L26.0869 42.5Z" fill="#000000" fill-opacity="1.000000" fill-rule="nonzero"></path>
  </symbol>
  <symbol fill="none" xmlns="http://www.w3.org/2000/svg" xmlns:xlink="http://www.w3.org/1999/xlink" viewBox="0 0 68 68" id="icon_uniq">
    <desc>Created with Pixso.</desc>
    <defs></defs>
    <rect id="feat-3" width="68.000000" height="68.000000" fill="#FFFFFF" fill-opacity="0"></rect>
    <path id="Vector" d="M67.58 64.7842C67.4752 64.6494 64.9503 61.4478 59.6006 58.2906C56.9904 56.75 53.3914 55.0512 48.7861 53.8093C49.7611 50.514 50.8712 45.7687 51.3499 40.1027C51.8914 33.6964 51.5072 27.4363 50.2076 21.4963C48.5791 14.0532 45.5041 7.10364 41.0679 0.840698C40.6944 0.313416 40.0884 0 39.4422 0C38.7961 0 38.1901 0.313293 37.8166 0.840698C36.4181 2.81506 35.155 4.85803 34.0297 6.96283C32.9044 4.85791 31.6415 2.81506 30.2429 0.840698C29.8694 0.313416 29.2634 0 28.6172 0C27.9711 0 27.3651 0.313293 26.9916 0.840698C22.5554 7.10345 19.4804 14.053 17.8518 21.4965C16.5523 27.4364 16.168 33.6964 16.7095 40.1028C17.2018 45.9283 18.3615 50.7807 19.3554 54.0843C15.1095 55.2884 11.6855 56.8436 9.12061 58.2632C3.46716 61.3926 0.622742 64.5502 0.504395 64.683C-0.0175476 65.2692 -0.146637 66.1072 0.1745 66.8231C0.495636 67.5391 1.20737 68 1.99216 68L66.0078 68C66.7688 68 67.4633 67.5663 67.7976 66.8828C68.1317 66.1992 68.0474 65.3849 67.58 64.7842ZM20.9628 26.9581L34.3264 17.8771C34.7222 19.1401 35.0719 20.42 35.3722 21.7177L20.5296 31.8038C20.6035 30.2441 20.7425 28.6243 20.9628 26.9581ZM21.9738 21.4539C23.1906 16.3163 25.2642 10.9068 28.6188 5.5744C30.3273 8.27899 31.7667 11.0904 32.9405 14.0015L21.9738 21.4539ZM20.4961 36.6438L36.179 25.9865C36.8241 30.3597 36.9548 34.9113 36.5666 39.6274C36.1538 44.6411 35.1975 48.9293 34.323 52.0159C30.2386 52.0394 26.5399 52.4701 23.2384 53.1424C22.2965 50.0504 21.1538 45.3767 20.6797 39.7673C20.5957 38.7749 20.5323 37.7314 20.4961 36.6438ZM34.6735 55.9971C45.4742 55.9971 52.9886 59.0514 57.3905 61.6136C58.8019 62.4352 59.9934 63.2602 60.9717 64.0156L7.43402 64.0156C12.1776 60.6701 21.2129 55.9971 34.6735 55.9971ZM39.444 5.5744C45.7576 15.5693 48.4302 27.0098 47.3914 39.6274C46.9364 45.1541 45.8212 49.7995 44.8829 52.9247C42.8862 52.5547 40.7358 52.2795 38.4326 52.1331C39.2726 48.9847 40.1222 44.8693 40.5251 40.1028C41.0665 33.6965 40.6823 27.4364 39.3827 21.4965C38.6317 18.0635 37.5721 14.736 36.214 11.532C37.1285 9.54749 38.1975 7.55554 39.444 5.5744Z" fill="#000000" fill-opacity="1.000000" fill-rule="nonzero"></path>
  </symbol>
  <symbol fill="none" xmlns="http://www.w3.org/2000/svg" xmlns:xlink="http://www.w3.org/1999/xlink" viewBox="0 0 38 38" id="icon_arrows">
    <desc>Created with Pixso.</desc>
    <defs>
      <clipPath id="clip142_888">
        <rect id="arrows 1" width="38.000000" height="38.000000" fill="white" fill-opacity="0"></rect>
      </clipPath>
    </defs>
    <rect id="arrows 1" width="38.000000" height="38.000000" fill="#FFFFFF" fill-opacity="0"></rect>
    <g clip-path="url(#clip142_888)">
      <path id="Vector" d="M18.2132 0.326172L11.5439 6.99548C11.1091 7.43018 11.1091 8.13501 11.5439 8.56982L14.693 11.7189C14.9565 11.9824 15.3191 12.0864 15.6606 12.0304L15.6606 15.6603L12.0307 15.6603C12.088 15.3124 11.9769 14.9502 11.7194 14.6927L8.57027 11.5436C8.13586 11.1091 7.43056 11.1088 6.99586 11.5436L0.326569 18.2129C-0.1082 18.6476 -0.1082 19.3524 0.326569 19.7872L6.99586 26.4565C7.43027 26.891 8.13557 26.8914 8.57027 26.4565L11.7194 23.3074C11.9771 23.0497 12.0879 22.6874 12.0307 22.3398L15.6605 22.3398L15.6605 25.9697C15.3191 25.9136 14.9563 26.0177 14.6929 26.2811L11.5438 29.4302C11.1091 29.8649 11.1091 30.5698 11.5438 31.0046L18.2131 37.674C18.6479 38.1086 19.3528 38.1086 19.7875 37.674L26.4568 31.0046C26.8912 30.5701 26.8916 29.8649 26.4568 29.4302L23.3077 26.2811C23.0443 26.0177 22.6816 25.9137 22.3402 25.9697L22.3402 22.34L25.9701 22.34C25.9128 22.6877 26.0239 23.0499 26.2815 23.3075L29.4306 26.4567C29.865 26.8911 30.5703 26.8914 31.005 26.4567L37.6743 19.7874C38.109 19.3527 38.109 18.6477 37.6743 18.2129L31.005 11.5436C30.5706 11.1091 29.8653 11.1089 29.4306 11.5436L26.2815 14.6927C26.0237 14.9504 25.9129 15.3127 25.9701 15.6603L22.3402 15.6603L22.3402 12.0305C22.6815 12.0864 23.0443 11.9824 23.3077 11.7191L26.4568 8.56995C26.8914 8.1355 26.8915 7.4303 26.4568 6.99561L19.7875 0.326294C19.3528 -0.108521 18.6479 -0.108521 18.2132 0.326172ZM22.5206 9.35742L22.0142 8.85095C21.3157 8.15234 20.1137 8.64697 20.1137 9.63818L20.1137 16.7736C20.1137 17.3883 20.6121 17.8868 21.2269 17.8868L28.3623 17.8868C29.3507 17.8868 29.8502 16.687 29.1495 15.9863L28.6431 15.48L30.2178 13.9052L35.3127 19.0001L30.2179 24.0951L28.6432 22.5203L29.1496 22.0139C29.8484 21.3149 29.3532 20.1134 28.3623 20.1134L21.2269 20.1134C20.6121 20.1134 20.1137 20.6118 20.1137 21.2267L20.1137 28.3621C20.1137 29.3538 21.3161 29.8474 22.0141 29.1492L22.5205 28.6428L24.0952 30.2175L19.0004 35.3124L13.9056 30.2174L15.4802 28.6427L15.9866 29.1492C16.6853 29.848 17.8871 29.3529 17.8871 28.3619L17.8871 21.2267C17.8871 20.6118 17.3886 20.1134 16.7738 20.1134L9.63843 20.1134C8.65005 20.1134 8.15056 21.3132 8.85126 22.0138L9.35765 22.5203L7.78296 24.095L2.68806 19.0001L7.78288 13.9052L9.35757 15.4799L8.85118 15.9863C8.15234 16.6852 8.64752 17.8868 9.63843 17.8868L16.7738 17.8868C17.3886 17.8868 17.8871 17.3883 17.8871 16.7736L17.8871 9.63818C17.8871 8.65015 16.6874 8.15015 15.9866 8.85095L15.4802 9.35742L13.9056 7.78271L19.0004 2.68774L24.0952 7.78271L22.5206 9.35742Z" fill="#FFFFFF" fill-opacity="1.000000" fill-rule="nonzero"></path>
    </g>
  </symbol>
  <symbol fill="none" xmlns="http://www.w3.org/2000/svg" xmlns:xlink="http://www.w3.org/1999/xlink" viewBox="0 0 68 68" id="icon_strong">
    <desc>Created with Pixso.</desc>
    <defs></defs>
    <rect id="feat-1" width="68.000000" height="68.000000" fill="#FFFFFF" fill-opacity="0"></rect>
    <path id="Vector" d="M35.875 32.1812L35.875 21.8167L40.025 21.8167C49.9181 21.8167 57.9666 13.768 57.9666 3.875C57.9666 2.83948 57.1271 2 56.0916 2L50.0646 2C43.0369 2 36.9411 6.06274 33.9996 11.9623C31.0576 6.06262 24.9615 2 17.9334 2L11.9084 2C10.8729 2 10.0334 2.83948 10.0334 3.875C10.0334 13.7681 18.082 21.8167 27.975 21.8167L32.125 21.8167L32.125 32.1812C15.3249 33.1521 2 47.0815 2 64.125C2 65.1605 2.8395 66 3.875 66L64.125 66C65.1605 66 66 65.1605 66 64.125C66 47.0815 52.6751 33.1521 35.875 32.1812ZM50.0646 5.75L54.0932 5.75C53.1726 12.692 47.2145 18.0667 40.025 18.0667L35.9981 18.0667C36.9174 11.1243 42.8751 5.75 50.0646 5.75ZM27.975 18.0667C20.7854 18.0667 14.8272 12.692 13.9067 5.75L17.9334 5.75C25.123 5.75 31.0811 11.1246 32.0016 18.0667L27.975 18.0667ZM5.8105 62.25C6.7385 47.9209 17.2449 40.245 24.0918 37.6658L24.0918 42.3777C24.0918 42.9499 23.8689 43.4879 23.4641 43.8926L17.4391 49.9176C15.1423 52.2145 15.1423 55.9519 17.4391 58.2488L21.44 62.25L5.8105 62.25ZM26.7434 62.25L20.0906 55.5972C19.2542 54.7609 19.2534 53.4065 20.0906 52.5693L26.1156 46.5444C27.2288 45.4314 27.8418 43.9516 27.8418 42.3777L27.8418 36.5489C29.8536 36.1014 31.9191 35.875 34 35.875C38.9144 35.875 43.6772 37.1336 47.9062 39.5338L37.5223 49.9177C35.2226 52.2174 35.2178 55.9449 37.5223 58.2489L41.5234 62.25L26.7434 62.25ZM46.8266 62.25L40.1739 55.5971C39.3382 54.7616 39.3371 53.4062 40.1739 52.5693L51.1001 41.6431C57.6121 46.6034 61.6478 54.1131 62.1879 62.2499L46.8266 62.2499L46.8266 62.25Z" fill="#000000" fill-opacity="1.000000" fill-rule="nonzero"></path>
  </symbol>
  <symbol fill="none" xmlns="http://www.w3.org/2000/svg" xmlns:xlink="http://www.w3.org/1999/xlink" viewBox="0 0 55.5632 39.264" id="logo">
    <desc>Created with Pixso.</desc>
    <defs></defs>
    <path id="Vector" d="M12.5753 18.552C11.5673 18.552 10.6793 18.376 9.91132 18.024C9.14334 17.672 8.55133 17.184 8.13535 16.56C7.71936 15.92 7.51135 15.184 7.51135 14.352C7.51135 13.648 7.65533 13.008 7.94336 12.432C8.24734 11.856 8.64734 11.4 9.14334 11.064C9.65533 10.728 10.2153 10.56 10.8233 10.56C11.3833 10.56 11.8553 10.704 12.2393 10.992C12.6233 11.264 12.8633 11.648 12.9593 12.144C12.1273 12.144 11.4633 12.368 10.9673 12.816C10.4713 13.248 10.2233 13.84 10.2233 14.592C10.2233 15.28 10.4313 15.832 10.8473 16.248C11.2633 16.664 11.8153 16.872 12.5033 16.872C13.3513 16.872 14.0473 16.592 14.5913 16.032C15.1513 15.456 15.4313 14.736 15.4313 13.872C15.4313 13.12 15.2233 12.408 14.8073 11.736C14.3913 11.064 13.7673 10.248 12.9353 9.28799C12.0713 8.29601 11.4153 7.448 10.9673 6.744C10.5353 6.024 10.3193 5.24001 10.3193 4.392C10.3193 3.56 10.5513 2.81599 11.0153 2.16C11.4793 1.48801 12.1193 0.960007 12.9353 0.576004C13.7513 0.192001 14.6713 0 15.6953 0C16.9913 0 18.0233 0.304001 18.7913 0.912003C19.5753 1.52 19.9673 2.336 19.9673 3.36C19.9673 4.032 19.7993 4.576 19.4633 4.992C19.1273 5.408 18.6873 5.616 18.1433 5.616C17.5353 5.616 17.0473 5.368 16.6793 4.87199C16.9833 4.64799 17.2233 4.35201 17.3993 3.98399C17.5753 3.616 17.6633 3.23199 17.6633 2.832C17.6633 2.32001 17.5113 1.912 17.2073 1.608C16.9033 1.304 16.4873 1.15201 15.9593 1.15201C15.3193 1.15201 14.7913 1.384 14.3753 1.84801C13.9753 2.29601 13.7753 2.87199 13.7753 3.576C13.7753 4.216 13.9593 4.81599 14.3273 5.37601C14.6953 5.92 15.2713 6.62401 16.0553 7.48801C16.6953 8.17599 17.2073 8.76801 17.5913 9.26401C17.9913 9.75999 18.3273 10.336 18.5993 10.992C18.8873 11.632 19.0313 12.328 19.0313 13.08C19.0313 14.104 18.7433 15.032 18.1673 15.864C17.6073 16.696 16.8313 17.352 15.8393 17.832C14.8633 18.312 13.7753 18.552 12.5753 18.552ZM22.7588 18.264C21.9908 18.264 21.3668 18.024 20.8868 17.544C20.4228 17.064 20.1908 16.344 20.1908 15.384C20.1908 14.984 20.2548 14.464 20.3828 13.824L22.0148 6.12L25.4708 6.12L23.7428 14.28C23.6948 14.52 23.6708 14.744 23.6708 14.952C23.6708 15.608 23.9108 15.936 24.3908 15.936C24.8388 15.936 25.2228 15.752 25.5428 15.384C25.8628 15 26.1188 14.48 26.3108 13.824L27.9428 6.12L31.3988 6.12L29.6708 14.28C29.6068 14.52 29.5748 14.776 29.5748 15.048C29.5748 15.368 29.6468 15.6 29.7908 15.744C29.9508 15.872 30.2068 15.936 30.5588 15.936C31.0068 15.936 31.3908 15.744 31.7108 15.36C32.0468 14.976 32.3108 14.464 32.5028 13.824L33.5108 13.824C32.9188 15.552 32.1828 16.728 31.3028 17.352C30.4388 17.96 29.5668 18.264 28.6868 18.264C27.9988 18.264 27.4468 18.072 27.0308 17.688C26.6308 17.304 26.3908 16.736 26.3108 15.984C25.7668 16.864 25.1908 17.464 24.5828 17.784C23.9908 18.104 23.3828 18.264 22.7588 18.264ZM34.132 6.12L37.588 6.12L37.276 7.608C37.82 7.12801 38.308 6.75999 38.74 6.504C39.188 6.248 39.668 6.12 40.18 6.12C40.692 6.12 41.092 6.29601 41.38 6.64799C41.684 7 41.836 7.424 41.836 7.92C41.836 8.384 41.684 8.79201 41.38 9.144C41.076 9.496 40.652 9.672 40.108 9.672C39.756 9.672 39.516 9.592 39.388 9.43201C39.276 9.256 39.188 9.008 39.124 8.688C39.076 8.48 39.028 8.328 38.98 8.23199C38.932 8.136 38.844 8.088 38.716 8.088C38.38 8.088 38.092 8.16 37.852 8.304C37.628 8.43201 37.332 8.664 36.964 9L35.044 18.12L31.588 18.12L34.132 6.12ZM39.3634 24.12C38.6114 24.12 37.9554 23.872 37.3954 23.376C36.8194 22.896 36.5314 22.28 36.5314 21.528C36.5314 20.84 36.7074 20.272 37.0594 19.824C37.4114 19.376 37.8674 19.016 38.4274 18.744C38.9874 18.488 39.7314 18.216 40.6594 17.928L43.5634 4.224C43.8834 2.688 44.4434 1.62401 45.2434 1.032C46.0594 0.440002 46.9554 0.143997 47.9314 0.143997C48.6834 0.143997 49.3394 0.391998 49.8994 0.888C50.4754 1.368 50.7634 1.98399 50.7634 2.73601C50.7634 3.104 50.7394 3.43201 50.6914 3.72L49.5634 3.72C49.5954 3.368 49.6114 3.15201 49.6114 3.07201C49.6114 2.81599 49.5234 2.616 49.3474 2.472C49.1714 2.328 48.9554 2.256 48.6994 2.256C48.3634 2.256 48.0354 2.408 47.7154 2.71201C47.3954 3 47.1634 3.504 47.0194 4.224L46.6114 6.12L48.3634 6.12L48.1954 7.08L46.4194 7.08L43.6594 20.04C43.3394 21.592 42.7874 22.656 42.0034 23.232C41.2194 23.824 40.3394 24.12 39.3634 24.12ZM38.8114 21.984C39.4514 21.984 39.9074 21.36 40.1794 20.112L40.4914 18.72C39.6434 19.008 38.9954 19.336 38.5474 19.704C38.0834 20.088 37.8514 20.584 37.8514 21.192C37.8514 21.384 37.9474 21.56 38.1394 21.72C38.3314 21.896 38.5554 21.984 38.8114 21.984ZM3.36002 39.264C2.272 39.264 1.44 39 0.864014 38.472C0.287994 37.928 0 37.168 0 36.192C0 35.712 0.0559998 35.256 0.167999 34.824L2.73599 22.8L6.28799 22.32L5.13602 27.72C5.58401 27.448 5.952 27.272 6.23999 27.192C6.52802 27.096 6.81601 27.048 7.104 27.048C8.992 27.048 9.93604 28.416 9.93604 31.152C9.93604 32.256 9.72 33.44 9.28799 34.704C8.87201 35.952 8.168 37.024 7.17599 37.92C6.20001 38.816 4.92801 39.264 3.36002 39.264ZM4.70401 36.936C5.20001 36.936 5.664 36.632 6.09601 36.024C6.52802 35.4 6.87201 34.632 7.12799 33.72C7.384 32.792 7.51199 31.904 7.51199 31.056C7.51199 30.416 7.39999 29.872 7.17599 29.424C6.952 28.976 6.64001 28.752 6.23999 28.752C6 28.752 5.728 28.792 5.42401 28.872C5.13602 28.936 4.936 29.04 4.82401 29.184L3.504 35.28C3.45599 35.472 3.43201 35.656 3.43201 35.832C3.43201 36.568 3.85602 36.936 4.70401 36.936ZM14.336 39.216C13.152 39.216 12.216 38.912 11.528 38.304C10.84 37.696 10.496 36.736 10.496 35.424C10.496 34.336 10.72 33.128 11.168 31.8C11.616 30.472 12.336 29.328 13.328 28.368C14.32 27.392 15.568 26.904 17.072 26.904C19.12 26.904 20.144 28.184 20.144 30.744L20.144 30.768C20.192 30.784 20.28 30.792 20.408 30.792C20.936 30.792 21.544 30.656 22.232 30.384C22.92 30.096 23.544 29.752 24.104 29.352L24.32 30C23.856 30.496 23.248 30.92 22.496 31.272C21.76 31.608 20.952 31.848 20.072 31.992C19.944 33.448 19.616 34.72 19.088 35.808C18.56 36.896 17.88 37.736 17.048 38.328C16.216 38.92 15.312 39.216 14.336 39.216ZM15.296 37.056C15.68 37.056 16.064 36.84 16.448 36.408C16.832 35.96 17.168 35.36 17.456 34.608C17.744 33.84 17.952 32.992 18.08 32.064C17.648 31.968 17.432 31.632 17.432 31.056C17.432 30.4 17.68 29.968 18.176 29.76C18.144 29.232 18.064 28.872 17.936 28.68C17.808 28.472 17.584 28.368 17.264 28.368C16.736 28.368 16.224 28.752 15.728 29.52C15.232 30.288 14.832 31.208 14.528 32.28C14.224 33.352 14.072 34.296 14.072 35.112C14.072 35.88 14.16 36.4 14.336 36.672C14.512 36.928 14.832 37.056 15.296 37.056ZM24.2589 39.264C23.3469 39.264 22.5869 38.952 21.9789 38.328C21.3709 37.704 21.0669 36.728 21.0669 35.4C21.0669 34.216 21.2989 32.976 21.7629 31.68C22.2429 30.368 22.9469 29.264 23.8749 28.368C24.8189 27.456 25.9389 27 27.2349 27C27.8909 27 28.3789 27.112 28.6989 27.336C29.0189 27.56 29.1789 27.856 29.1789 28.224L29.1789 28.392L29.4429 27.12L32.8989 27.12L31.1709 35.28C31.1069 35.52 31.0749 35.776 31.0749 36.048C31.0749 36.736 31.4029 37.08 32.0589 37.08C32.5069 37.08 32.8909 36.872 33.2109 36.456C33.5469 36.04 33.8109 35.496 34.0029 34.824L35.0109 34.824C34.4189 36.552 33.6829 37.728 32.8029 38.352C31.9389 38.96 31.0669 39.264 30.1869 39.264C29.5149 39.264 28.9709 39.08 28.5549 38.712C28.1549 38.328 27.9149 37.776 27.8349 37.056C27.3709 37.712 26.8509 38.248 26.2749 38.664C25.7149 39.064 25.0429 39.264 24.2589 39.264ZM25.8189 36.936C26.2189 36.936 26.6109 36.752 26.9949 36.384C27.3949 36 27.6669 35.48 27.8109 34.824L28.9629 29.4C28.9629 29.192 28.8829 28.992 28.7229 28.8C28.5629 28.592 28.3149 28.488 27.9789 28.488C27.3389 28.488 26.7629 28.864 26.2509 29.616C25.7389 30.352 25.3389 31.248 25.0509 32.304C24.7629 33.344 24.6189 34.264 24.6189 35.064C24.6189 35.864 24.7309 36.376 24.9549 36.6C25.1949 36.824 25.4829 36.936 25.8189 36.936ZM35.6437 27.12L39.0997 27.12L38.7877 28.608C39.3317 28.128 39.8197 27.76 40.2517 27.504C40.6997 27.248 41.1797 27.12 41.6917 27.12C42.2037 27.12 42.6037 27.296 42.8917 27.648C43.1957 28 43.3477 28.424 43.3477 28.92C43.3477 29.384 43.1957 29.792 42.8917 30.144C42.5877 30.496 42.1637 30.672 41.6197 30.672C41.2677 30.672 41.0277 30.592 40.8997 30.432C40.7877 30.256 40.6997 30.008 40.6357 29.688C40.5877 29.48 40.5397 29.328 40.4917 29.232C40.4437 29.136 40.3557 29.088 40.2277 29.088C39.8917 29.088 39.6037 29.16 39.3637 29.304C39.1397 29.432 38.8437 29.664 38.4757 30L36.5557 39.12L33.0997 39.12L35.6437 27.12ZM45.9152 39.264C45.0032 39.264 44.2432 38.952 43.6352 38.328C43.0272 37.704 42.7232 36.728 42.7232 35.4C42.7232 34.216 42.9552 32.976 43.4192 31.68C43.8992 30.368 44.6032 29.264 45.5312 28.368C46.4752 27.456 47.5952 27 48.8912 27C49.5472 27 50.0352 27.112 50.3552 27.336C50.6752 27.56 50.8352 27.856 50.8352 28.224L50.8352 28.32L52.0112 22.8L55.5632 22.32L52.8032 35.28C52.7392 35.52 52.7072 35.752 52.7072 35.976C52.7072 36.616 53.0352 36.936 53.6912 36.936C53.9792 36.936 54.2352 36.888 54.4592 36.792C54.3952 37.592 54.1072 38.208 53.5952 38.64C53.0992 39.056 52.5072 39.264 51.8192 39.264C51.1792 39.264 50.6352 39.104 50.1872 38.784C49.7552 38.448 49.4672 37.944 49.3232 37.272C48.3632 38.6 47.2272 39.264 45.9152 39.264ZM47.4752 36.936C47.8272 36.936 48.1792 36.784 48.5312 36.48C48.8992 36.176 49.1712 35.752 49.3472 35.208L49.4432 34.824L50.6192 29.328C50.4752 28.768 50.1472 28.488 49.6352 28.488C48.9952 28.488 48.4192 28.864 47.9072 29.616C47.3952 30.352 46.9952 31.248 46.7072 32.304C46.4192 33.344 46.2752 34.264 46.2752 35.064C46.2752 35.864 46.3872 36.376 46.6112 36.6C46.8512 36.824 47.1392 36.936 47.4752 36.936Z" fill="#FFFFFF" fill-opacity="1.000000" fill-rule="nonzero"></path>
  </symbol>
  <symbol fill="white" xmlns="http://www.w3.org/2000/svg" xmlns:xlink="http://www.w3.org/1999/xlink" viewBox="0 0 34.6923 34.6923" id="icon_board">
    <desc>Created with Pixso.</desc>
    <defs></defs>
    <path id="Vector" d="M34.3946 0.297668C34.1814 0.0842896 33.884 -0.023468 33.5838 0.00430298C33.4585 0.015686 30.467 0.300171 26.3644 1.67725C13.0125 5.78937 4.1759 18.7361 0.066803 28.102C-0.191833 28.7204 0.33075 29.5483 1.11292 29.4799L5.65152 29.0383L5.21002 33.5765C5.16165 34.2289 5.79498 34.916 6.58801 34.6226C22.8928 27.1934 32.8381 15.8221 34.6881 1.10843C34.7155 0.808014 34.608 0.510925 34.3946 0.297668ZM21.2567 22.6343C19.455 24.2739 17.6791 25.6833 16.0375 26.8706L16.0375 9.56729C17.7583 8.15698 19.5418 7.01389 21.2567 6.091L21.2567 22.6343ZM11.3397 29.9453C9.72632 30.8932 8.36447 31.5851 7.40128 32.0417L7.79391 28.0059C7.85217 27.4808 7.36639 26.8164 6.68414 26.8962L2.64957 27.2886C4.01257 24.3968 7.6835 17.6638 14.0052 11.3976L14.0052 28.2784C13.031 28.9243 12.1322 29.4797 11.3397 29.9453ZM31.0693 7.737C29.8759 11.2737 27.5584 16.3797 23.289 20.6904L23.289 5.07867C26.0701 3.73547 30.3191 2.53149 32.4799 2.21225C32.2728 3.42572 31.8571 5.40231 31.0693 7.737Z" fill="#FFFFFF" fill-opacity="1.000000" fill-rule="nonzero"></path>
  </symbol>
  <symbol fill="none" xmlns="http://www.w3.org/2000/svg" xmlns:xlink="http://www.w3.org/1999/xlink" viewBox="0 0 41 41" id="icon_car">
    <desc>Created with Pixso.</desc>
    <defs>
      <clipPath id="clip178_449">
        <rect id="main-1" width="41.000000" height="41.000000" fill="white" fill-opacity="0"></rect>
      </clipPath>
    </defs>
    <rect id="main-1" width="41.000000" height="41.000000" fill="#FFFFFF" fill-opacity="0"></rect>
    <g clip-path="url(#clip178_449)">
      <path id="Vector" d="M37.6166 20.6113L35.5779 17.9856L35.5798 17.9846L32.3001 11.4616C32.1143 11.0925 31.7364 10.8596 31.3231 10.8596L26.6586 10.8596L26.6586 9.7663C26.6586 9.16245 26.1692 8.6731 25.5654 8.6731L7.34464 8.6731C6.74077 8.6731 6.25142 9.16251 6.25142 9.7663C6.25142 10.3701 6.74084 10.8595 7.34464 10.8595L24.4721 10.8595L24.4721 18.5122C24.4721 19.1161 24.9615 19.6054 25.5653 19.6054L34.0675 19.6054L35.6596 21.6563L35.6596 27.2946L33.5992 27.2946C33.1253 25.3922 31.4023 23.9785 29.3553 23.9785C27.3082 23.9785 25.5852 25.3923 25.1114 27.2947L18.6582 27.2947C18.1843 25.3923 16.4613 23.9785 14.4143 23.9785C12.3672 23.9785 10.6442 25.3923 10.1704 27.2947L7.34464 27.2947C6.74077 27.2947 6.25142 27.7841 6.25142 28.3879C6.25142 28.9918 6.74084 29.4812 7.34464 29.4812L10.1892 29.4812C10.6884 31.3467 12.3934 32.7245 14.4143 32.7245C16.4351 32.7245 18.1401 31.3467 18.6393 29.4812L25.1302 29.4812C25.6295 31.3467 27.3345 32.7245 29.3553 32.7245C31.3765 32.7245 33.0813 31.3466 33.5804 29.481L36.7529 29.481C37.3567 29.481 37.8461 28.9916 37.8461 28.3878L37.8461 21.2819C37.8461 21.0392 37.7652 20.803 37.6166 20.6113ZM32.8475 17.419L26.6586 17.419L26.6586 13.0461L30.6489 13.0461L32.8475 17.419ZM15.3617 13.1554L6.03269 13.1554C5.42883 13.1554 4.93948 13.6448 4.93948 14.2486C4.93948 14.8525 5.4289 15.3418 6.03269 15.3418L15.3617 15.3418C15.9656 15.3418 16.455 14.8524 16.455 14.2486L16.455 14.2485C16.455 13.6447 15.9656 13.1554 15.3617 13.1554ZM13.5761 17.4555L4.24706 17.4555C3.64326 17.4555 3.15384 17.9449 3.15384 18.5488C3.15384 19.1526 3.64326 19.642 4.24706 19.642L13.5761 19.642C14.18 19.642 14.6693 19.1526 14.6693 18.5488C14.6693 17.9449 14.18 17.4555 13.5761 17.4555ZM11.0617 21.7556L6.03269 21.7556C5.42883 21.7556 4.93948 22.245 4.93948 22.8488C4.93948 23.4527 5.4289 23.942 6.03269 23.942L11.0616 23.942C11.6655 23.942 12.1548 23.4526 12.1548 22.8488L12.1548 22.8487C12.1548 22.245 11.6654 21.7556 11.0617 21.7556ZM14.4143 30.538C13.2084 30.538 12.2278 29.5573 12.2278 28.3515C12.2278 27.1457 13.2084 26.165 14.4143 26.165C15.6198 26.165 16.6008 27.1457 16.6008 28.3515C16.6008 29.5574 15.6201 30.538 14.4143 30.538ZM29.3553 30.538C28.1494 30.538 27.1688 29.5573 27.1688 28.3515C27.1688 27.1457 28.1494 26.165 29.3553 26.165C30.5611 26.165 31.5418 27.1457 31.5418 28.3515C31.5418 29.5574 30.5611 30.538 29.3553 30.538Z" fill="#FFFFFF" fill-opacity="1.000000" fill-rule="evenodd"></path>
    </g>
  </symbol>
  <symbol fill="none" xmlns="http://www.w3.org/2000/svg" xmlns:xlink="http://www.w3.org/1999/xlink" viewBox="0 0 12.9036 13.7824" id="phone">
    <desc>Created with Pixso.</desc>
    <defs>
      <clipPath id="clip1_48">
        <rect id="Frame" width="12.903614" height="13.782384" fill="white" fill-opacity="0"></rect>
      </clipPath>
    </defs>
    <rect id="Frame" width="12.903614" height="13.782384" fill="#FFFFFF" fill-opacity="0"></rect>
    <g clip-path="url(#clip1_48)">
      <path id="Vector" d="M12.669 12.2789C12.4344 12.78 11.9652 13.0306 11.4959 13.2812C10.9094 13.6571 10.4402 13.7824 9.85367 13.7824C9.03253 13.7824 8.2114 13.4065 7.50757 13.1559C6.92102 12.9053 6.45181 12.6547 5.86526 12.4041C4.22299 11.2765 2.3461 9.27179 1.40765 7.64296C1.05576 7.01648 0.821136 6.5153 0.586517 5.88884C0.351929 5.01178 0 4.26001 0 3.25766C0 2.63118 0.11731 2.00471 0.469208 1.37823C0.703827 0.87706 0.938446 0.375885 1.40765 0.12529C1.75958 0.12529 2.3461 0 2.69803 0C2.81534 0 2.81534 0 2.93265 0C3.16724 0.12529 3.28455 0.501175 3.40186 0.75177C3.63647 1.37823 3.9884 1.87941 4.22299 2.50589C4.45761 2.75647 4.69223 3.00706 4.69223 3.25766C4.69223 3.88412 3.04996 4.76118 3.04996 5.26236C3.04996 5.51295 3.28455 5.88884 3.40186 6.13942C4.3403 7.89354 5.51337 9.14648 7.15564 10.1488C7.39026 10.2741 7.74216 10.5247 7.97678 10.5247C8.44601 10.5247 9.26715 8.77061 9.85367 8.77061C10.0883 8.77061 10.3229 9.02119 10.5575 9.27179C11.0267 9.64767 11.6133 9.89825 12.0825 10.2741C12.3171 10.3994 12.669 10.5247 12.7863 10.7753C12.7863 10.9006 12.7863 10.9006 12.7863 11.0259C12.9036 11.2765 12.7863 11.903 12.669 12.2789Z" fill="#FFFFFF" fill-opacity="1.000000" fill-rule="nonzero"></path>
    </g>
  </symbol>
</svg>
<svg class="icon">
  <use xlink:href="#tv"></use>
</svg>
<svg class="icon">
  <use xlink:href="#in"></use>
</svg>
<svg class="icon">
  <use xlink:href="#vk"></use>
</svg>
<svg class="icon">
  <use xlink:href="#fb"></use>
</svg>
<svg class="icon">
  <use xlink:href="#icon_fit"></use>
</svg>
<svg class="icon">
  <use xlink:href="#icon_uniq"></use>
</svg>
<svg class="icon">
  <use xlink:href="#icon_arrows"></use>
</svg>
<svg class="icon">
  <use xlink:href="#icon_strong"></use>
</svg>
<svg class="icon">
  <use xlink:href="#logo"></use>
</svg>
<svg class="hello-icon">
  <use xlink:href="#icon_board"></use>
</svg>
<svg class="icon">
  <use xlink:href="#icon_car"></use>
</svg>
<svg class="icon">
  <use xlink:href="#phone"></use>
</svg>